<?xml version="1.0" encoding="utf-8"?>
<!-- Generator: Adobe Illustrator 19.1.0, SVG Export Plug-In . SVG Version: 6.00 Build 0)  -->
<svg version="1.1" id="Layer_1" xmlns="http://www.w3.org/2000/svg" xmlns:xlink="http://www.w3.org/1999/xlink" x="0px" y="0px"
	 viewBox="0 0 512 512" style="enable-background:new 0 0 512 512;" xml:space="preserve">
<style type="text/css">
	.st0{fill:#2C3A4E;}
	.st1{fill:#F8991D;}
	.st2{font-family:'Ubuntu-Bold';}
	.st3{font-size:71.2967px;}
	.st4{font-size:96.0577px;}
</style>
<g>
	<path class="st0" d="M512,208.9h-72.4v-4.1h-8.7h-6H419v4.1h-62.8c5.8-5.5,9.9-12.8,11.1-21.1h0.4v-35.2h143.8v-10.2H367.8V82.7
		h143.9V72.5H367.8V45.5l0.7-0.1L368.2,21l-124,33.2l0.1,13.4l0,0v4.8H0.5v10.2h243.9v59.7H94.2v-10.5h-8.7h-6h-5.9v10.5H0.3v10.2
		h73.4v56.3H0.7v10.2h72.9v39C66.9,251.9,58,248,48.1,248c-18.4,0-33.6,13.3-36.7,30.8H0.6v10.3h10.5c1.9,18.9,17.6,33.8,37,33.8
		c18.8,0,34.3-13.9,37-32h0.4v-1.8H419v42c-6.7-6.3-15.6-10.1-25.5-10.1c-19.1,0-34.7,14.4-36.9,32.9H0.7v10.3h355.9
		c2.8,17.9,18.2,31.6,36.8,31.6c18.6,0,34.1-13.7,36.8-31.6H512v-10.3h-81.1v-64.8h17.5l6.7,8.9l11.6-8.9h45v-10.3h-52.6L437,249.6
		v-10.2l20.8,27.4l11.7-8.9L440,219.1h72L512,208.9L512,208.9z M306.9,208.9h-51.1v-56.3h55.5c-9.6,6.5-15.9,17.5-15.9,30
		C295.4,193,299.9,202.3,306.9,208.9z M356.3,156.2c-1.4-1.3-3-2.5-4.6-3.6h4.6V156.2z M356.3,72.5h-21.6l21.6-6.2L356.3,72.5
		L356.3,72.5z M356.3,47.7v11.9l-45,12.9h-41.4L356.3,47.7z M275.4,82.7l-19.5,5.6v-5.6H275.4z M255.8,94.9l42.9-12.3h57.5v59.7
		H255.8L255.8,94.9z M244.4,152.6v37.2c-6.5-6.1-15.1-9.8-24.7-9.8c-17.5,0-32.1,12.4-35.4,28.9H116l-24.4-32.2v-10.2l20.9,27.4
		l11.7-8.9l-24.7-32.4L244.4,152.6z M85.5,193.1l12,15.8h-12V193.1z M440.6,278.8h-9.8v-12.9L440.6,278.8z M419,278.8H85.5v-59.7
		h19.8l4.5,5.9l7.7-5.9h66.3c1.5,18.6,16.9,33.3,35.9,33.3c18.2,0,33.2-13.5,35.8-30.9h0.4v-2.3H419L419,278.8L419,278.8L419,278.8z
		"/>
</g>
<text transform="matrix(1.352 0 0 1 92 347.2783)" class="st1 st2 st3">SDUs</text>
<text transform="matrix(1 0 0 1 1 473.8721)" class="st1 st2 st4">STOREKOR</text>
</svg>
