<?xml version="1.0" encoding="utf-8"?>
<!-- Generator: Adobe Illustrator 21.0.0, SVG Export Plug-In . SVG Version: 6.00 Build 0)  -->
<svg version="1.1" id="Layer_1" xmlns="http://www.w3.org/2000/svg" xmlns:xlink="http://www.w3.org/1999/xlink" x="0px" y="0px"
	 viewBox="0 0 512 521.8" style="enable-background:new 0 0 512 521.8;" xml:space="preserve">
<style type="text/css">
	.st0{fill:#2C3A4E;}
	.st1{fill:#F8991D;}
	.st2{font-family:'Ubuntu-Bold';}
	.st3{font-size:105.217px;}
	.st4{font-size:83.1771px;}
</style>
<g>
	<path class="st0" d="M525.2,188.3h-68.4v-3.8h-8.4h-5.8h-5.7v3.8h-95.4c5.5-5.2,9.4-12.1,10.5-19.9h0.4v-34.2h166.8v-9.5H352.4v-56
		h163.8v-9.5H352.4V33v-0.1l-0.3-23.1L234.6,41.2l0.9,12.8v-0.4v4.6H-1.1v9.5h235.7v57H92.2v-9.5h-8.4h-5.8h-5.7v9.5H-2v9.5h75.2
		v54.1H-2v9.5h75.2v37.2c-6.4-5.8-14.8-9.5-24.2-9.5c-17.5,0-31.9,12.7-34.9,29.3H-2v9.5h15.4c1.8,18,16.7,32.2,35.1,32.2
		c17.9,0,32.6-13.2,35.1-30.3h-0.1v-1.9h353.3v80.8c-6.4-6-14.8-9.6-24.3-9.6c-18.2,0-33,13.7-35.1,31.3H-2v9.5h379.7
		c2.7,16.5,17.3,29.1,34.9,29.1c17.7,0,32.4-12.6,34.9-29.1h77.6v-9.5h-76.9V264.3h16.6l6.4,8.2l11.1-8.2h42.9v-9.5h-50.2L454,227.8
		v-11.2l19.8,25.5l11.1-8.3l-28-36.1h68.4V188.3L525.2,188.3z M294.3,188.3H246v-53.2h52.4c-9.1,6.1-15,16.5-15,28.3
		C283.4,173.3,287.7,182,294.3,188.3z M341,138.5c-1.3-1.2-2.8-2.4-4.4-3.4h4.4V138.5z M341,59.1h-20.5l20.5-5.9V59.1L341,59.1z
		 M341,35.6v11.3l-42.7,12.3h-39.3L341,35.6z M264.5,68.6L246,73.9v-5.3H264.5z M246,79.4l40.6-11.7H341v57h-95V79.4z M234.6,135.1
		v35.1c-6.2-5.8-14.4-9.3-23.5-9.3c-16.6,0-30.5,11.7-33.7,27.3h-64.9l-23.2-30.4v-9.6l19.9,25.9l11.1-8.4l-23.5-30.6H234.6z
		 M84.6,173.3l11.4,15H84.6V173.3z M457.6,254.8h-9.3v-12.3L457.6,254.8z M436.9,254.8H84.6v-57h18.3l4.3,5.7l7.3-5.7h63
		c1.4,17.8,16,31.7,34.1,31.7c17.3,0,31.5-12.8,34-29.8h0.5v-1.9h190.9V254.8L436.9,254.8L436.9,254.8z"/>
</g>
<text transform="matrix(1.1982 0 0 1 -2 484.7582)" class="st1 st2 st3">ODENSE</text>
<text transform="matrix(0.8589 0 0 1 1 359.9379)" class="st1 st2 st4">STOREKOR</text>
</svg>
